<svg xmlns="http://www.w3.org/2000/svg" xmlns:xlink="http://www.w3.org/1999/xlink" xmlns:inkscape="http://www.inkscape.org/namespaces/inkscape" version="1.1" width="252" height="144" viewBox="0 0 252 144">
<defs>
<clipPath id="clip_1">
<path transform="matrix(1,0,0,-1,0,144)" d="M0 144H252V0H0Z"/>
</clipPath>
</defs>
<g inkscape:groupmode="layer" inkscape:label="Layer 1">
<g clip-path="url(#clip_1)">
<path transform="matrix(1,0,0,-1,252,135)" d="M0 0C0-4.95-4.05-9-9-9H-243C-247.95-9-252-4.95-252 0V126C-252 130.95-247.95 135-243 135H-9C-4.05 135 0 130.95 0 126Z" fill="#ffffff"/>
<path transform="matrix(1,0,0,-1,55.4834,35.984399)" d="M0 0H-.145L-12.865-31.729H12.287ZM-20.309-50.158H-21.899L-1.012 1.445H.867L21.249-50.158H19.658L12.865-33.174H-13.443Z" fill="#484848"/>
<path transform="matrix(1,0,0,-1,96.0288,84.697299)" d="M0 0C3.035 0 5.914 .494 8.637 1.481 11.358 2.469 13.743 3.963 15.792 5.963 17.839 7.962 19.453 10.491 20.634 13.551 21.814 16.611 22.405 20.212 22.405 24.356 22.405 29.174 21.802 33.149 20.598 36.282 19.393 39.413 17.803 41.907 15.828 43.762 13.852 45.616 11.624 46.906 9.143 47.628 6.66 48.352 4.12 48.713 1.518 48.713H-14.744V0ZM1.879 50.158C4.432 50.158 7.021 49.761 9.648 48.966 12.274 48.171 14.635 46.797 16.731 44.846 18.827 42.895 20.537 40.257 21.863 36.932 23.187 33.607 23.85 29.416 23.85 24.356 23.85 19.731 23.175 15.78 21.827 12.503 20.477 9.227 18.67 6.564 16.406 4.518 14.141 2.469 11.563 .964 8.673 0 5.782-.964 2.77-1.445-.361-1.445H-16.189V50.158Z" fill="#484848"/>
<path transform="matrix(1,0,0,-1,131.1465,46.4644)" d="M0 0C.289-.82 .734-1.723 1.336-2.71 1.939-3.698 2.711-4.818 3.65-6.071 4.59-7.324 5.709-8.793 7.01-10.479 8.021-9.757 9.154-8.962 10.408-8.095 11.66-7.227 12.828-6.276 13.912-5.24 14.996-4.204 15.912-3.06 16.658-1.807 17.406-.554 17.779 .819 17.779 2.313 17.779 3.565 17.537 4.698 17.057 5.71 16.574 6.722 15.912 7.577 15.068 8.275 14.225 8.973 13.262 9.516 12.178 9.901 11.094 10.287 9.949 10.48 8.744 10.48 7.492 10.48 6.311 10.299 5.203 9.938 4.094 9.576 3.119 9.045 2.277 8.348 1.434 7.649 .77 6.805 .289 5.818-.193 4.83-.434 3.71-.434 2.458-.434 1.638-.289 .819 0 0M2.133-15.25C.566-16.262-.867-17.382-2.168-18.61-3.469-19.839-4.542-21.225-5.385-22.766-6.228-24.309-6.649-26.09-6.649-28.115-6.649-29.946-6.264-31.572-5.493-32.993-4.723-34.415-3.723-35.607-2.494-36.571-1.266-37.535 .156-38.257 1.771-38.739 3.385-39.221 5.01-39.461 6.648-39.461 10.117-39.461 13.01-38.594 15.322-36.86 17.635-35.125 19.465-32.884 20.814-30.138L6.648-12.359C5.203-13.274 3.697-14.238 2.133-15.25M28.187-39.678 21.754-31.511C20.309-34.162 18.346-36.378 15.863-38.161 13.381-39.943 10.311-40.834 6.648-40.834 4.865-40.834 3.082-40.545 1.301-39.967-.482-39.389-2.061-38.558-3.434-37.474-4.807-36.39-5.927-35.065-6.794-33.499-7.661-31.934-8.095-30.138-8.095-28.115-8.095-25.995-7.661-24.103-6.794-22.441-5.927-20.779-4.819-19.273-3.469-17.924-2.121-16.576-.627-15.358 1.012-14.274 2.648-13.19 4.238-12.167 5.781-11.202 5.059-10.19 4.264-9.143 3.396-8.059 2.529-6.974 1.699-5.867 .902-4.734 .107-3.603-.555-2.446-1.084-1.265-1.615-.084-1.879 1.108-1.879 2.313-1.879 3.999-1.566 5.444-.939 6.649-.314 7.853 .494 8.841 1.48 9.612 2.469 10.383 3.588 10.961 4.842 11.347 6.094 11.732 7.371 11.925 8.672 11.925 10.117 11.925 11.479 11.708 12.756 11.275 14.031 10.841 15.152 10.214 16.117 9.396 17.08 8.576 17.84 7.577 18.393 6.396 18.947 5.215 19.225 3.854 19.225 2.313 19.225 .578 18.852-.952 18.104-2.276 17.357-3.603 16.43-4.806 15.322-5.89 14.213-6.974 12.984-7.975 11.637-8.89 10.287-9.806 9.033-10.696 7.877-11.563L21.465-28.765C21.945-27.706 22.379-26.405 22.766-24.862 23.15-23.321 23.295-21.586 23.199-19.658H24.645C24.693-21.827 24.523-23.694 24.139-25.26 23.754-26.826 23.199-28.428 22.477-30.066L30.066-39.678Z" fill="#484848"/>
<path transform="matrix(1,0,0,-1,215.1465,34.5391)" d="M0 0V-51.604H-1.46V-1.807H-1.605L-23.724-51.604H-25.329L-47.447-1.807H-47.594V-51.604H-49.054V0H-46.645L-24.6-49.725H-24.453L-2.408 0Z" fill="#484848"/>
<path transform="matrix(1,0,0,-1,41.7207,103.8135)" d="M0 0-2.494 6.612-5.077 0ZM-1.753 7.841 3.307-5.06H1.987L.416-1.049H-5.457L-7.011-5.06H-8.312L-3.126 7.841Z" fill="#484848"/>
<path transform="matrix(1,0,0,-1,47.5381,99.549808)" d="M0 0V-2.187H.037C.326-1.428 .774-.843 1.382-.434 1.991-.024 2.716 .163 3.56 .127V-1.012C3.042-.987 2.572-1.057 2.15-1.22 1.729-1.382 1.364-1.614 1.057-1.915 .75-2.217 .512-2.574 .344-2.99 .175-3.406 .091-3.86 .091-4.354V-9.323H-1.048V0Z" fill="#484848"/>
<path transform="matrix(1,0,0,-1,56.0845,99.549808)" d="M0 0V-.958H-1.897V-7.245C-1.897-7.619-1.846-7.911-1.744-8.122-1.641-8.333-1.385-8.45-.976-8.474-.65-8.474-.325-8.456 0-8.42V-9.378C-.169-9.378-.337-9.384-.506-9.396-.675-9.407-.843-9.414-1.012-9.414-1.771-9.414-2.301-9.267-2.602-8.971-2.903-8.676-3.047-8.131-3.036-7.336V-.958H-4.662V0H-3.036V2.801H-1.897V0Z" fill="#484848"/>
<path transform="matrix(1,0,0,-1,59.3984,108.873)" d="M0 0C0-.265-.033-.526-.1-.786-.166-1.045-.265-1.286-.397-1.509-.53-1.731-.696-1.927-.895-2.096-1.093-2.265-1.325-2.385-1.59-2.457V-1.681C-1.446-1.632-1.319-1.542-1.211-1.409-1.102-1.276-1.012-1.129-.939-.967-.867-.804-.816-.635-.786-.461-.756-.286-.747-.133-.759 0H-1.518V1.915H0Z" fill="#484848"/>
<path transform="matrix(1,0,0,-1,69.5527,107.825199)" d="M0 0C.928 0 1.726 .1 2.394 .298 3.063 .497 3.614 .813 4.047 1.247 4.481 1.681 4.8 2.24 5.005 2.927 5.21 3.614 5.312 4.438 5.312 5.402 5.312 6.366 5.21 7.191 5.005 7.878 4.8 8.564 4.481 9.125 4.047 9.559 3.614 9.992 3.063 10.309 2.394 10.507 1.726 10.706 .928 10.805 0 10.805H-2.62V0ZM.614 11.853C2.578 11.805 4.057 11.254 5.05 10.2 6.044 9.146 6.541 7.547 6.541 5.402 6.541 3.259 6.044 1.659 5.05 .605 4.057-.449 2.578-1 .614-1.048H-3.849V11.853Z" fill="#484848"/>
<path transform="matrix(1,0,0,-1,84.3774,102.3145)" d="M0 0C-.139 .397-.334 .75-.587 1.058-.84 1.364-1.147 1.611-1.509 1.798-1.87 1.984-2.28 2.078-2.737 2.078-3.207 2.078-3.623 1.984-3.984 1.798-4.345 1.611-4.652 1.364-4.905 1.058-5.158 .75-5.36 .395-5.511-.009-5.662-.412-5.761-.825-5.809-1.246H.226C.214-.812 .139-.397 0 0M-5.637-3.478C-5.523-3.918-5.339-4.312-5.086-4.661-4.833-5.011-4.514-5.3-4.128-5.528-3.743-5.758-3.279-5.872-2.737-5.872-1.906-5.872-1.256-5.655-.786-5.222-.316-4.788 .009-4.21 .19-3.487H1.328C1.087-4.547 .645-5.366 0-5.944-.645-6.522-1.557-6.812-2.737-6.812-3.472-6.812-4.107-6.682-4.644-6.423-5.18-6.164-5.616-5.809-5.954-5.357-6.291-4.905-6.541-4.381-6.703-3.785-6.866-3.188-6.947-2.56-6.947-1.896-6.947-1.282-6.866-.681-6.703-.09-6.541 .5-6.291 1.027-5.954 1.491-5.616 1.954-5.18 2.328-4.644 2.611-4.107 2.894-3.472 3.036-2.737 3.036-1.991 3.036-1.352 2.885-.822 2.584-.292 2.283 .139 1.889 .47 1.4 .801 .913 1.039 .353 1.184-.28 1.328-.912 1.388-1.554 1.364-2.204H-5.809C-5.809-2.613-5.752-3.038-5.637-3.478" fill="#484848"/>
<path transform="matrix(1,0,0,-1,92.7217,101.365207)" d="M0 0C-.132 .259-.31 .473-.533 .641-.756 .81-1.012 .933-1.301 1.012-1.59 1.09-1.897 1.129-2.222 1.129-2.475 1.129-2.731 1.102-2.99 1.048-3.249 .993-3.487 .903-3.704 .776-3.92 .65-4.095 .484-4.228 .279-4.36 .075-4.427-.179-4.427-.479-4.427-.732-4.363-.946-4.237-1.121-4.11-1.295-3.951-1.443-3.758-1.563-3.565-1.684-3.354-1.783-3.125-1.861-2.897-1.939-2.686-2.003-2.493-2.051L-.976-2.395C-.65-2.442-.328-2.53-.009-2.656 .31-2.783 .593-2.948 .84-3.153 1.087-3.358 1.289-3.611 1.446-3.912 1.602-4.214 1.681-4.569 1.681-4.979 1.681-5.484 1.566-5.915 1.337-6.271 1.108-6.626 .816-6.915 .461-7.138 .105-7.36-.295-7.52-.741-7.616-1.187-7.713-1.626-7.761-2.06-7.761-3.156-7.761-4.044-7.502-4.725-6.983-5.405-6.466-5.794-5.635-5.89-4.49H-4.752C-4.704-5.262-4.424-5.843-3.912-6.234-3.4-6.626-2.764-6.821-2.005-6.821-1.729-6.821-1.442-6.791-1.147-6.73-.852-6.671-.578-6.568-.325-6.424-.072-6.279 .136-6.096 .298-5.873 .461-5.649 .542-5.376 .542-5.051 .542-4.773 .485-4.542 .371-4.354 .256-4.168 .103-4.012-.09-3.885-.283-3.759-.503-3.653-.75-3.569-.997-3.484-1.247-3.412-1.5-3.353L-2.963-3.026C-3.336-2.931-3.68-2.819-3.993-2.692-4.306-2.566-4.58-2.41-4.815-2.223-5.05-2.036-5.234-1.808-5.366-1.536-5.499-1.266-5.565-.931-5.565-.533-5.565-.063-5.459 .34-5.249 .677-5.038 1.015-4.764 1.285-4.427 1.49-4.089 1.695-3.713 1.846-3.297 1.942-2.882 2.038-2.469 2.087-2.06 2.087-1.59 2.087-1.153 2.026-.75 1.906-.346 1.785 .009 1.599 .316 1.346 .624 1.093 .868 .779 1.048 .406 1.229 .032 1.331-.407 1.355-.913H.217C.205-.563 .133-.26 0 0" fill="#484848"/>
<path transform="matrix(1,0,0,-1,0,144)" d="M97.564 35.127H96.425V44.449998H97.564ZM97.564 46.203H96.425V48.027H97.564Z" fill="#484848"/>
<path transform="matrix(1,0,0,-1,104.793,107.491199)" d="M0 0C.374 .211 .687 .488 .94 .832 1.193 1.175 1.382 1.569 1.509 2.015 1.635 2.461 1.699 2.918 1.699 3.389 1.699 3.846 1.645 4.304 1.536 4.762 1.428 5.219 1.253 5.635 1.012 6.008 .771 6.382 .461 6.683 .082 6.911-.298 7.141-.759 7.255-1.301 7.255-1.843 7.255-2.307 7.144-2.692 6.921-3.078 6.697-3.396 6.405-3.649 6.044-3.902 5.683-4.086 5.271-4.201 4.807-4.315 4.343-4.373 3.87-4.373 3.389-4.373 2.918-4.312 2.461-4.192 2.015-4.071 1.569-3.884 1.175-3.631 .832-3.378 .488-3.06 .211-2.674 0-2.289-.211-1.831-.315-1.301-.315-.807-.315-.374-.211 0 0M2.611-2.484C2.46-3.038 2.223-3.508 1.897-3.894 1.572-4.278 1.147-4.574 .624-4.778 .1-4.983-.542-5.086-1.301-5.086-1.771-5.086-2.229-5.031-2.674-4.923-3.12-4.814-3.521-4.646-3.875-4.417-4.231-4.188-4.526-3.896-4.761-3.541-4.996-3.186-5.131-2.761-5.167-2.268H-4.029C-3.969-2.616-3.852-2.908-3.677-3.144-3.502-3.378-3.292-3.568-3.044-3.713-2.797-3.857-2.523-3.963-2.222-4.029-1.921-4.095-1.614-4.128-1.301-4.128-.241-4.128 .524-3.827 .994-3.225 1.464-2.622 1.699-1.755 1.699-.623V.642H1.663C1.397 .063 1.009-.4 .497-.749-.015-1.099-.614-1.273-1.301-1.273-2.048-1.273-2.686-1.15-3.216-.903-3.746-.656-4.183-.315-4.526 .118-4.869 .552-5.119 1.061-5.276 1.645-5.433 2.229-5.511 2.853-5.511 3.515-5.511 4.153-5.417 4.759-5.23 5.331-5.044 5.902-4.773 6.402-4.417 6.83-4.062 7.258-3.623 7.595-3.099 7.842-2.575 8.089-1.976 8.213-1.301 8.213-.952 8.213-.623 8.164-.316 8.068-.009 7.972 .271 7.836 .524 7.661 .777 7.486 1.003 7.285 1.202 7.056 1.4 6.827 1.554 6.586 1.663 6.333H1.699V7.941H2.837V-.623C2.837-1.31 2.762-1.93 2.611-2.484" fill="#484848"/>
<path transform="matrix(1,0,0,-1,110.5391,99.549808)" d="M0 0V-1.608H.036C.253-1.042 .638-.587 1.192-.244 1.746 .1 2.354 .271 3.017 .271 3.667 .271 4.212 .187 4.652 .019 5.092-.15 5.444-.389 5.709-.695 5.974-1.003 6.161-1.379 6.27-1.825 6.378-2.271 6.432-2.771 6.432-3.324V-9.323H5.294V-3.505C5.294-3.107 5.258-2.737 5.186-2.394 5.113-2.051 4.987-1.753 4.806-1.5 4.625-1.247 4.381-1.048 4.074-.903 3.767-.759 3.384-.687 2.927-.687 2.469-.687 2.063-.768 1.707-.931 1.352-1.093 1.051-1.316 .804-1.599 .557-1.882 .364-2.22 .226-2.61 .087-3.002 .012-3.427 0-3.885V-9.323H-1.139V0Z" fill="#484848"/>
<path transform="matrix(1,0,0,-1,127.0176,97.3545)" d="M0 0C-.338-.283-.506-.695-.506-1.237-.506-1.467-.458-1.698-.362-1.934-.266-2.168-.145-2.397 0-2.62 .145-2.843 .301-3.06 .469-3.271 .639-3.481 .795-3.671 .939-3.84 1.168-3.695 1.4-3.538 1.635-3.37 1.869-3.201 2.084-3.012 2.275-2.801 2.469-2.59 2.625-2.355 2.746-2.096 2.865-1.837 2.926-1.551 2.926-1.237 2.926-.695 2.758-.283 2.42 0 2.084 .283 1.68 .425 1.211 .425 .74 .425 .336 .283 0 0M-.38-5.646C-.693-5.852-.976-6.086-1.229-6.351-1.482-6.616-1.687-6.908-1.844-7.228-2-7.547-2.079-7.899-2.079-8.284-2.079-8.658-2-9.001-1.844-9.314-1.687-9.628-1.479-9.898-1.22-10.127-.961-10.356-.663-10.531-.326-10.651 .012-10.771 .361-10.832 .723-10.832 1.373-10.832 1.953-10.654 2.465-10.299 2.979-9.943 3.414-9.507 3.775-8.989L.561-5.086C.246-5.255-.067-5.441-.38-5.646M2.801-11.247C2.15-11.597 1.445-11.771 .686-11.771 .133-11.771-.383-11.693-.859-11.537-1.335-11.38-1.747-11.151-2.097-10.85-2.446-10.549-2.72-10.176-2.918-9.729-3.117-9.284-3.217-8.767-3.217-8.176-3.217-7.718-3.121-7.297-2.928-6.911-2.735-6.525-2.485-6.177-2.178-5.863-1.871-5.55-1.53-5.267-1.157-5.014-.784-4.761-.416-4.538-.055-4.346-.235-4.117-.419-3.885-.606-3.649-.792-3.415-.961-3.171-1.112-2.918-1.263-2.665-1.389-2.4-1.491-2.123-1.594-1.846-1.645-1.551-1.645-1.237-1.645-.84-1.57-.481-1.419-.162-1.269 .156-1.064 .431-.805 .659-.546 .889-.245 1.066 .1 1.192 .441 1.319 .812 1.382 1.211 1.382 1.607 1.382 1.979 1.319 2.32 1.192 2.664 1.066 2.965 .889 3.225 .659 3.484 .431 3.688 .156 3.84-.162 3.99-.481 4.064-.84 4.064-1.237 4.064-1.635 3.992-1.996 3.848-2.321 3.703-2.646 3.514-2.942 3.279-3.207 3.045-3.472 2.775-3.716 2.475-3.938 2.174-4.162 1.861-4.376 1.535-4.58L4.354-7.978C4.51-7.664 4.613-7.348 4.66-7.028 4.709-6.71 4.734-6.303 4.734-5.809H5.871C5.871-6.17 5.82-6.638 5.719-7.209 5.615-7.781 5.414-8.345 5.113-8.898L7.281-11.519H5.854L4.48-9.838C4.01-10.429 3.451-10.898 2.801-11.247" fill="#484848"/>
<path transform="matrix(1,0,0,-1,141.9053,95.9727)" d="M0 0 4.282-11.311 8.728 0H10.534V-12.9H9.306V-1.752H9.27L4.86-12.9H3.704L-.542-1.752H-.578V-12.9H-1.807V0Z" fill="#484848"/>
<path transform="matrix(1,0,0,-1,160.6689,103.7773)" d="M0 0C-.072-.133-.211-.229-.416-.289-.621-.35-.802-.392-.958-.416-1.439-.5-1.937-.576-2.448-.642-2.961-.708-3.428-.808-3.849-.94-4.271-1.072-4.616-1.263-4.888-1.509-5.159-1.756-5.294-2.108-5.294-2.566-5.294-2.855-5.237-3.111-5.123-3.334-5.008-3.557-4.854-3.75-4.662-3.912-4.47-4.075-4.246-4.198-3.993-4.282-3.74-4.367-3.481-4.409-3.217-4.409-2.783-4.409-2.367-4.343-1.97-4.21-1.572-4.078-1.226-3.885-.931-3.632-.636-3.379-.4-3.072-.226-2.711-.052-2.35 .036-1.939 .036-1.482V0ZM-5.691 2.782C-5.499 3.18-5.237 3.505-4.906 3.758-4.574 4.011-4.187 4.197-3.74 4.318-3.295 4.438-2.801 4.499-2.259 4.499-1.85 4.499-1.439 4.459-1.03 4.381-.621 4.303-.253 4.155 .072 3.938 .397 3.722 .662 3.417 .867 3.026 1.072 2.635 1.174 2.125 1.174 1.499V-3.451C1.174-3.909 1.397-4.138 1.843-4.138 1.976-4.138 2.096-4.114 2.204-4.065V-5.023C2.071-5.048 1.954-5.065 1.852-5.077 1.749-5.09 1.62-5.096 1.463-5.096 1.174-5.096 .942-5.057 .768-4.979 .593-4.9 .457-4.788 .361-4.644 .265-4.499 .201-4.328 .172-4.129 .142-3.931 .126-3.711 .126-3.47H.09C-.115-3.771-.322-4.039-.533-4.273-.744-4.509-.979-4.704-1.238-4.86-1.497-5.018-1.792-5.138-2.123-5.223-2.455-5.307-2.849-5.349-3.307-5.349-3.74-5.349-4.146-5.297-4.526-5.195-4.906-5.093-5.237-4.931-5.521-4.707-5.804-4.484-6.026-4.201-6.188-3.858-6.352-3.515-6.433-3.108-6.433-2.639-6.433-1.988-6.288-1.479-5.999-1.111-5.71-.744-5.327-.464-4.852-.271-4.376-.079-3.84 .057-3.243 .135-2.647 .213-2.042 .289-1.428 .361-1.187 .385-.976 .415-.795 .451-.614 .487-.464 .551-.344 .641-.224 .731-.13 .854-.063 1.012 .003 1.168 .036 1.373 .036 1.626 .036 2.011-.027 2.327-.153 2.574-.28 2.821-.455 3.017-.678 3.161-.9 3.306-1.16 3.405-1.455 3.46-1.75 3.514-2.066 3.541-2.403 3.541-3.126 3.541-3.717 3.369-4.174 3.026-4.632 2.683-4.873 2.132-4.896 1.373H-6.035C-5.999 1.915-5.885 2.385-5.691 2.782" fill="#484848"/>
<path transform="matrix(1,0,0,-1,165.5654,99.549808)" d="M0 0V-2.187H.036C.325-1.428 .774-.843 1.383-.434 1.99-.024 2.717 .163 3.56 .127V-1.012C3.042-.987 2.572-1.057 2.15-1.22 1.729-1.382 1.364-1.614 1.058-1.915 .75-2.217 .512-2.574 .344-2.99 .175-3.406 .091-3.86 .091-4.354V-9.323H-1.048V0Z" fill="#484848"/>
<path transform="matrix(1,0,0,-1,172.1611,95.9727)" d="M0 0V-8.094L5.167-3.577H6.686L2.71-7.028 6.956-12.9H5.528L1.843-7.823 0-9.359V-12.9H-1.139V0Z" fill="#484848"/>
<path transform="matrix(1,0,0,-1,186.1006,102.3145)" d="M0 0C-.139 .397-.334 .75-.587 1.058-.84 1.364-1.147 1.611-1.509 1.798-1.87 1.984-2.279 2.078-2.737 2.078-3.207 2.078-3.623 1.984-3.984 1.798-4.346 1.611-4.652 1.364-4.905 1.058-5.158 .75-5.36 .395-5.511-.009-5.661-.412-5.761-.825-5.809-1.246H.226C.214-.812 .139-.397 0 0M-5.638-3.478C-5.522-3.918-5.339-4.312-5.086-4.661-4.833-5.011-4.515-5.3-4.129-5.528-3.743-5.758-3.279-5.872-2.737-5.872-1.906-5.872-1.256-5.655-.786-5.222-.316-4.788 .009-4.21 .189-3.487H1.328C1.087-4.547 .645-5.366 0-5.944-.645-6.522-1.557-6.812-2.737-6.812-3.472-6.812-4.107-6.682-4.644-6.423-5.18-6.164-5.616-5.809-5.953-5.357-6.291-4.905-6.541-4.381-6.703-3.785-6.866-3.188-6.947-2.56-6.947-1.896-6.947-1.282-6.866-.681-6.703-.09-6.541 .5-6.291 1.027-5.953 1.491-5.616 1.954-5.18 2.328-4.644 2.611-4.107 2.894-3.472 3.036-2.737 3.036-1.99 3.036-1.353 2.885-.822 2.584-.292 2.283 .139 1.889 .47 1.4 .801 .913 1.039 .353 1.184-.28 1.328-.912 1.389-1.554 1.364-2.204H-5.809C-5.809-2.613-5.752-3.038-5.638-3.478" fill="#484848"/>
<path transform="matrix(1,0,0,-1,193.2461,99.549808)" d="M0 0V-.958H-1.897V-7.245C-1.897-7.619-1.846-7.911-1.743-8.122-1.642-8.333-1.386-8.45-.976-8.474-.65-8.474-.325-8.456 0-8.42V-9.378C-.169-9.378-.337-9.384-.506-9.396-.675-9.407-.843-9.414-1.012-9.414-1.771-9.414-2.301-9.267-2.602-8.971-2.903-8.676-3.048-8.131-3.035-7.336V-.958H-4.661V0H-3.035V2.801H-1.897V0Z" fill="#484848"/>
<path transform="matrix(1,0,0,-1,0,144)" d="M196.57 35.127H195.432V44.449998H196.57ZM196.57 46.203H195.432V48.027H196.57Z" fill="#484848"/>
<path transform="matrix(1,0,0,-1,199.1357,99.549808)" d="M0 0V-1.608H.036C.253-1.042 .639-.587 1.192-.244 1.747 .1 2.355 .271 3.018 .271 3.668 .271 4.213 .187 4.653 .019 5.093-.15 5.444-.389 5.71-.695 5.975-1.003 6.161-1.379 6.27-1.825 6.378-2.271 6.433-2.771 6.433-3.324V-9.323H5.294V-3.505C5.294-3.107 5.258-2.737 5.186-2.394 5.113-2.051 4.987-1.753 4.807-1.5 4.626-1.247 4.382-1.048 4.074-.903 3.768-.759 3.385-.687 2.928-.687 2.47-.687 2.063-.768 1.708-.931 1.353-1.093 1.051-1.316 .805-1.599 .558-1.882 .364-2.22 .227-2.61 .088-3.002 .012-3.427 0-3.885V-9.323H-1.138V0Z" fill="#484848"/>
<path transform="matrix(1,0,0,-1,212.7412,107.491199)" d="M0 0C.373 .211 .687 .488 .939 .832 1.192 1.175 1.383 1.569 1.509 2.015 1.636 2.461 1.698 2.918 1.698 3.389 1.698 3.846 1.645 4.304 1.536 4.762 1.428 5.219 1.253 5.635 1.012 6.008 .771 6.382 .461 6.683 .081 6.911-.298 7.141-.759 7.255-1.301 7.255-1.843 7.255-2.307 7.144-2.692 6.921-3.078 6.697-3.396 6.405-3.649 6.044-3.902 5.683-4.086 5.271-4.201 4.807-4.315 4.343-4.372 3.87-4.372 3.389-4.372 2.918-4.312 2.461-4.191 2.015-4.071 1.569-3.885 1.175-3.632 .832-3.379 .488-3.06 .211-2.674 0-2.288-.211-1.831-.315-1.301-.315-.807-.315-.373-.211 0 0M2.611-2.484C2.46-3.038 2.223-3.508 1.897-3.894 1.572-4.278 1.147-4.574 .624-4.778 .1-4.983-.542-5.086-1.301-5.086-1.771-5.086-2.229-5.031-2.674-4.923-3.12-4.814-3.521-4.646-3.875-4.417-4.23-4.188-4.526-3.896-4.761-3.541-4.996-3.186-5.131-2.761-5.167-2.268H-4.029C-3.969-2.616-3.852-2.908-3.677-3.144-3.502-3.378-3.291-3.568-3.044-3.713-2.798-3.857-2.523-3.963-2.223-4.029-1.921-4.095-1.614-4.128-1.301-4.128-.241-4.128 .524-3.827 .994-3.225 1.464-2.622 1.698-1.755 1.698-.623V.642H1.662C1.397 .063 1.009-.4 .497-.749-.015-1.099-.614-1.273-1.301-1.273-2.048-1.273-2.687-1.15-3.216-.903-3.746-.656-4.183-.315-4.526 .118-4.869 .552-5.119 1.061-5.275 1.645-5.433 2.229-5.511 2.853-5.511 3.515-5.511 4.153-5.418 4.759-5.23 5.331-5.044 5.902-4.773 6.402-4.418 6.83-4.062 7.258-3.622 7.595-3.099 7.842-2.574 8.089-1.976 8.213-1.301 8.213-.951 8.213-.623 8.164-.316 8.068-.009 7.972 .271 7.836 .524 7.661 .777 7.486 1.003 7.285 1.202 7.056 1.4 6.827 1.554 6.586 1.662 6.333H1.698V7.941H2.837V-.623C2.837-1.31 2.762-1.93 2.611-2.484" fill="#484848"/>
<path transform="matrix(1,0,0,-1,0,144)" d="M215.5 51.052H33.089006V52.344999H215.5Z" fill="#00aeef"/>
</g>
</g>
</svg>
